<svg xmlns="http://www.w3.org/2000/svg" width="96" height="96" viewBox="0 0 96 96">
  <g fill="none" fill-rule="evenodd">
    <rect width="96" height="96" fill="#9FD1E5" fill-opacity=".5" rx="3"/>
    <g transform="translate(5 39)">
      <rect width="19" height="19" fill="#93ACC8" rx="3"/>
      <polygon fill="#FFF" points="3 15 16 15 12.239 9.225 9.871 12.394 7.067 7"/>
      <circle cx="14.5" cy="6.5" r="1.5" fill="#FFF"/>
      <g transform="translate(22)">
        <rect width="19" height="19" fill="#93ACC8" rx="3"/>
        <polygon fill="#FFF" points="3 15 16 15 12.239 9.225 9.871 12.394 7.067 7"/>
        <circle cx="14.5" cy="6.5" r="1.5" fill="#FFF"/>
      </g>
      <g transform="translate(44)">
        <rect width="19" height="19" fill="#93ACC8" rx="3"/>
        <polygon fill="#FFF" points="3 15 16 15 12.239 9.225 9.871 12.394 7.067 7"/>
        <circle cx="14.5" cy="6.5" r="1.5" fill="#FFF"/>
      </g>
      <g transform="translate(67)">
        <rect width="19" height="19" fill="#93ACC8" rx="3"/>
        <polygon fill="#FFF" points="3 15 16 15 12.239 9.225 9.871 12.394 7.067 7"/>
        <circle cx="14.5" cy="6.5" r="1.5" fill="#FFF"/>
      </g>
    </g>
  </g>
</svg>
